<?xml version="1.0" encoding="utf-8"?>
<!-- Generator: Adobe Illustrator 15.1.0, SVG Export Plug-In  -->
<!DOCTYPE svg PUBLIC "-//W3C//DTD SVG 1.1//EN" "http://www.w3.org/Graphics/SVG/1.1/DTD/svg11.dtd" [
	<!ENTITY ns_flows "http://ns.adobe.com/Flows/1.0/">
]>
<svg version="1.1"
	 xmlns="http://www.w3.org/2000/svg" xmlns:xlink="http://www.w3.org/1999/xlink" xmlns:a="http://ns.adobe.com/AdobeSVGViewerExtensions/3.0/"
	 x="0px" y="0px" width="647px" height="613px" viewBox="-11.3 -11.188 647 613"
	 overflow="visible" enable-background="new -11.3 -11.188 647 613" xml:space="preserve">
<defs>
</defs>
<polygon fill-rule="evenodd" clip-rule="evenodd" fill="#FFFFFF" stroke="#2B1C9B" stroke-width="3" stroke-miterlimit="10" points="
	615.958,234.424 402.146,219.957 329.134,7.023 241.195,224.285 7.195,232.648 190.337,369.091 122.946,579.711 299.442,456.082 
	494.704,586.39 460.586,448.99 584.201,448.99 584.201,356.355 441.752,356.355 "/>
<circle fill="#09009F" stroke="#FFFFFF" stroke-width="3" stroke-miterlimit="10" cx="368.301" cy="244.879" r="17.75"/>
<polygon fill-rule="evenodd" clip-rule="evenodd" fill="#FFFFFF" points="367.58,251.279 358.501,257.638 361.94,246.852 
	352.675,239.947 364.558,239.533 369.011,228.508 372.726,239.3 383.642,240.034 374.522,246.419 377.335,257.783 367.58,251.279 
	"/>
<circle fill="#2B1C9B" stroke="#FFFFFF" stroke-width="3" stroke-miterlimit="10" cx="217.029" cy="350.801" r="17.75"/>
<polygon fill-rule="evenodd" clip-rule="evenodd" fill="#FFFFFF" points="216.311,357.2 207.229,363.559 210.671,352.772 
	201.403,345.868 213.286,345.454 217.741,334.429 221.456,345.221 232.37,345.955 223.251,352.34 226.065,363.704 216.311,357.2 "/>
<circle fill="#09009F" stroke="#FFFFFF" stroke-width="3" stroke-miterlimit="10" cx="292.666" cy="297.84" r="17.751"/>
<polygon fill-rule="evenodd" clip-rule="evenodd" fill="#FFFFFF" points="291.946,304.239 282.866,310.598 286.306,299.812 
	277.038,292.908 288.921,292.493 293.376,281.469 297.091,292.26 308.005,292.994 298.888,299.38 301.7,310.743 291.946,304.239 "/>
<polygon id="red_half_8_" fill-rule="evenodd" clip-rule="evenodd" fill="#AA0E2F" stroke="#FFFFFF" stroke-width="3" stroke-miterlimit="10" points="
	394.797,194.892 329.18,4.282 240.61,223.508 4.323,231.748 168.003,353.694 "/>
<path fill-rule="evenodd" clip-rule="evenodd" fill="#2500DF" stroke="#FFFFFF" stroke-width="3" stroke-miterlimit="10" d="
	M307.827,376.437c0.008,0.035,0.008,0.075,0.016,0.11C311.481,376.502,310.972,376.348,307.827,376.437z"/>
<path fill-rule="evenodd" clip-rule="evenodd" fill="#2B1C9B" stroke="#FFFFFF" stroke-width="3" stroke-miterlimit="10" d="
	M333.222,451.269c-18.345-25.493-55.484-54.652-92.346-31.017c-2.565-11.392,0.822-20.286,7.049-26.082
	c16.031-14.914,50.295-17.462,59.902-17.733c-0.738-3.807,2.844-11.041,5.656-14.692c21.096-27.382,87.78-37.244,129.705-20.443
	c4.657,1.866,9.168,4.096,13.58,6.523l163.318-114.357l-176.27-11.86L175.741,409.315L120.19,583.499l180.566-126.435l53.246,35.505
	C349.359,477.688,342.08,463.582,333.222,451.269z"/>
<path fill-rule="evenodd" clip-rule="evenodd" fill="#2B1C9B" stroke="#FFFFFF" stroke-width="3" stroke-miterlimit="10" d="
	M406.726,527.726l87.979,58.664l-23.518-94.981C448.765,506.626,425.899,519.857,406.726,527.726z"/>
<path fill="#2B1C9B" d="M354.917,420.826c0,0.454-0.709,0.68-2.125,0.68c-0.112,0-0.85,0-2.209,0c-1.361,0-3.346,0-5.951,0h-2.72
	h-7.31c-0.795,0-1.19-0.211-1.19-0.635c0-0.369,0.332-0.555,1-0.555h0.668c1.446,0,2.296-0.186,2.545-0.556
	c0.251-0.369,0.378-1.638,0.378-3.802V399.47c0-6.093-0.392-9.739-1.173-10.937c-0.67-1.024-1.869-1.537-3.597-1.537
	c-1.73,0-3.153,0.537-4.268,1.611c-1.115,1.074-1.674,2.43-1.674,4.068v25.693c0.113,0.678,0.354,1.117,0.723,1.314
	c0.367,0.198,1.29,0.326,2.761,0.381c0.454,0,0.683,0.17,0.683,0.51s-0.199,0.537-0.596,0.594c-0.396,0.055-1.814,0.083-4.251,0.083
	s-4.448,0.029-6.035,0.085c-3.116,0.113-6.288,0.17-9.519,0.17c-0.681,0-1.02-0.197-1.02-0.594c0-0.451,0.863-0.679,2.591-0.679
	c1.729,0,2.733-0.339,3.018-1.017l0.255-1.187v-19.499c0-5.482-0.056-8.338-0.17-8.562c-0.17-0.848-0.934-1.273-2.295-1.273
	c-0.736,0-1.389,0-1.955,0h-0.934c-0.908,0-1.361-0.184-1.361-0.555c0-0.369,0.338-0.582,1.016-0.635
	c6.316-0.283,11.363-1.615,15.144-3.995c0.45-0.226,0.759-0.34,0.929-0.34c0.451,0,0.678,0.454,0.678,1.36c0,2.494,0,4.109,0,4.845
	c3.004-3.91,6.855-5.865,11.562-5.865c4.872,0,8.044,1.7,9.519,5.101c0.623,1.416,1.006,3.004,1.147,4.76
	c0.142,1.757,0.212,5.385,0.212,10.88v12.325c0,1.757,0.141,2.791,0.426,3.102c0.283,0.312,1.203,0.469,2.762,0.469
	S354.917,420.373,354.917,420.826z"/>
<path fill="#2B1C9B" d="M379.483,420.826c0,0.396-0.257,0.595-0.763,0.595h-11.265h-8.129c-0.34,0-0.765,0-1.271,0
	c-0.451,0-0.707,0-0.763,0c-0.677,0-1.015-0.181-1.015-0.544c0-0.271,0.651-0.431,1.955-0.477c1.926-0.055,3.059-0.27,3.398-0.64
	s0.51-1.495,0.51-3.376v-24.52c0-2.165-0.184-3.46-0.551-3.888c-0.369-0.428-1.488-0.642-3.357-0.642
	c-1.191,0-1.885-0.027-2.084-0.085c-0.199-0.056-0.297-0.255-0.297-0.595c0-0.396,0.426-0.596,1.275-0.596
	c6.231-0.055,11.561-1.02,15.98-2.89c0.112,0.681,0.254,2.55,0.424,5.61v10.795v15.98c0,2.324,0.212,3.684,0.639,4.079
	c0.425,0.397,1.884,0.595,4.376,0.595C379.171,420.23,379.483,420.43,379.483,420.826z M373.532,366.936
	c0,1.588-0.551,2.947-1.653,4.08c-1.101,1.135-2.433,1.7-3.997,1.7c-1.623,0-2.987-0.538-4.089-1.614s-1.651-2.437-1.651-4.08
	c0-1.586,0.55-2.891,1.651-3.91c1.102-1.021,2.522-1.53,4.263-1.53c1.564,0,2.867,0.51,3.91,1.53
	C373.011,364.131,373.532,365.406,373.532,366.936z"/>
<path fill="#2B1C9B" d="M425.806,420.826c0,0.454-0.71,0.68-2.126,0.68c-0.112,0-0.85,0-2.208,0c-1.361,0-3.347,0-5.951,0h-2.719
	h-7.311c-0.796,0-1.189-0.211-1.189-0.635c0-0.369,0.332-0.555,1-0.555h0.669c1.444,0,2.294-0.186,2.544-0.556
	c0.25-0.369,0.377-1.638,0.377-3.802V399.47c0-6.093-0.391-9.739-1.171-10.937c-0.671-1.024-1.87-1.537-3.599-1.537
	c-1.73,0-3.151,0.537-4.268,1.611c-1.115,1.074-1.675,2.43-1.675,4.068v25.693c0.113,0.678,0.354,1.117,0.724,1.314
	c0.367,0.198,1.288,0.326,2.762,0.381c0.453,0,0.681,0.17,0.681,0.51s-0.199,0.537-0.595,0.594c-0.396,0.055-1.814,0.083-4.25,0.083
	c-2.438,0-4.449,0.029-6.035,0.085c-3.117,0.113-6.289,0.17-9.52,0.17c-0.68,0-1.02-0.197-1.02-0.594
	c0-0.451,0.863-0.679,2.592-0.679c1.728,0,2.732-0.339,3.018-1.017l0.254-1.187v-19.499c0-5.482-0.057-8.338-0.17-8.562
	c-0.17-0.848-0.934-1.273-2.295-1.273c-0.736,0-1.389,0-1.955,0h-0.934c-0.909,0-1.361-0.184-1.361-0.555
	c0-0.369,0.337-0.582,1.016-0.635c6.316-0.283,11.363-1.615,15.143-3.995c0.451-0.226,0.759-0.34,0.93-0.34
	c0.45,0,0.678,0.454,0.678,1.36c0,2.494,0,4.109,0,4.845c3.005-3.91,6.854-5.865,11.561-5.865c4.873,0,8.045,1.7,9.52,5.101
	c0.623,1.416,1.006,3.004,1.148,4.76c0.14,1.757,0.21,5.385,0.21,10.88v12.325c0,1.757,0.142,2.791,0.427,3.102
	c0.283,0.312,1.202,0.469,2.762,0.469C425.026,420.146,425.806,420.373,425.806,420.826z"/>
<g>
	<path fill="#2B1C9B" d="M462.017,410.966c0,1.247-0.738,2.89-2.211,4.931c-3.174,4.363-7.31,6.545-12.411,6.545
		c-5.722,0-10.424-1.813-14.108-5.44c-3.684-3.626-5.525-8.272-5.525-13.94c0-5.553,1.784-10.186,5.355-13.896
		c3.57-3.711,8.018-5.568,13.345-5.568c3.626,0,6.716,0.795,9.265,2.381c2.833,1.756,4.676,4.279,5.525,7.564
		c0.227,1.02,0.396,2.239,0.51,3.654c-1.305,0.152-6.545,0.266-15.725,0.341c-1.418,0-3.201,0.058-5.356,0.17
		c-0.169,2.032-0.253,3.753-0.253,5.163c0,6.605,1.386,11.291,4.164,14.057c1.643,1.637,3.655,2.455,6.034,2.455
		c1.983,0,3.897-0.68,5.738-2.04s3.243-3.116,4.208-5.271c0.453-1.075,0.82-1.614,1.105-1.614
		C461.901,410.456,462.017,410.626,462.017,410.966z M451.306,396.091c0.057-4.331-0.254-7.341-0.934-9.028
		c-0.682-1.688-1.871-2.531-3.57-2.531c-3.456,0-5.442,3.854-5.951,11.56c1.191,0,3.684,0,7.479,0
		C449.463,396.091,450.456,396.091,451.306,396.091z"/>
</g>
<path fill="#2B1C9B" d="M492.529,415.896c0,0.623-0.542,1.444-1.626,2.465c-2.797,2.664-6.652,3.994-11.561,3.994
	c-4.51,0-7.479-1.104-8.904-3.314c-0.572-0.85-0.9-1.643-0.986-2.38c-0.086-0.735-0.127-2.636-0.127-5.695v-4.08
	c0.113-1.075,0.17-2.21,0.17-3.399l-0.17-1.785v-7.65v-6.119c0-1.021-0.143-1.615-0.426-1.785s-1.135-0.256-2.549-0.256
	c-1.701,0-2.551-0.226-2.551-0.68c0-0.34,0.311-0.566,0.936-0.68c5.323-0.17,9.916-3.061,13.77-8.67
	c0.51-0.793,0.906-1.19,1.189-1.19c0.34,0,0.51,0.397,0.51,1.19c-0.058,4.874,0.142,7.537,0.596,7.99
	c0.453,0.453,1.84,0.68,4.163,0.68c2.383,0,4.051-0.113,5.016-0.34c0.114-0.057,0.228-0.086,0.341-0.086
	c0.226,0,0.34,0.178,0.34,0.534c0,0.831-0.366,1.247-1.097,1.247c-2.304,0.061-4.86,0.09-7.669,0.09c-0.225,0-0.618,0-1.181,0v1.775
	c0,15.109,0.114,23.962,0.342,26.555c0.519,3.27,2.128,4.904,4.831,4.904c1.207,0,2.76-0.85,4.659-2.55
	c0.918-0.793,1.495-1.19,1.726-1.19C492.442,415.471,492.529,415.613,492.529,415.896z"/>
<path fill="#2B1C9B" d="M527.974,385.126c0,0.397-0.114,0.638-0.34,0.723c-0.227,0.085-1.021,0.128-2.379,0.128
	c-1.531,0-2.438,0.084-2.721,0.254l-0.51,0.936l-1.02,2.975c-0.455,1.36-1.476,4.109-3.062,8.245
	c-0.115,0.341-1.358,3.825-3.739,10.455c-5.608,15.696-9.236,25.188-10.881,28.476c-2.039,4.08-4.646,6.119-7.818,6.119
	c-1.814,0-3.273-0.539-4.38-1.615c-1.103-1.076-1.654-2.494-1.654-4.25c0-2.776,1.528-4.164,4.588-4.164
	c1.021,0,1.841,0.34,2.466,1.02c0.283,0.283,0.764,1.076,1.446,2.381c0.393,0.564,0.933,0.85,1.614,0.85
	c1.133,0,2.223-0.949,3.271-2.848c1.049-1.899,2.479-5.484,4.293-10.754c-0.454-0.907-1.33-2.918-2.631-6.035
	c-1.701-4.306-3.972-9.942-6.81-16.912c-0.677-1.7-2.204-5.414-4.577-11.139c-0.795-2.006-1.475-3.199-2.043-3.584
	c-0.566-0.383-1.871-0.604-3.914-0.664c-0.68,0-1.021-0.197-1.021-0.595c0-0.396,0.339-0.595,1.021-0.595h1.529
	c0.851,0,2.124,0,3.823,0c1.702,0,3.005,0,3.911,0h10.371c0.34,0,0.734,0,1.189,0c0.623,0,0.936,0.199,0.936,0.595
	c0,0.51-0.85,0.737-2.551,0.681c-1.699-0.057-2.549,0.312-2.549,1.104c0,0.567,0.224,1.444,0.679,2.635
	c0.624,1.587,0.964,2.522,1.021,2.806c2.775,7.707,5.042,13.571,6.801,17.594c5.27-13.43,7.904-21.08,7.904-22.949
	c0-0.623-0.652-0.936-1.955-0.936c-2.722,0-4.08-0.254-4.08-0.765c0-0.51,0.34-0.765,1.02-0.765c0.566,0,1.133,0.029,1.701,0.084
	c1.074,0.115,2.549,0.171,4.421,0.171c0.224,0,1.062-0.042,2.505-0.128c1.445-0.085,2.394-0.127,2.848-0.127h0.511
	C527.721,384.531,527.974,384.73,527.974,385.126z"/>
<path fill="#2B1C9B" d="M566.733,407.48c0,9.465-2.671,17.368-8.008,23.715c-5.338,6.346-12.013,9.521-20.018,9.521
	c-3.352,0-6.065-0.722-8.135-2.167c-2.074-1.445-3.11-3.303-3.11-5.568c0-1.644,0.511-2.961,1.529-3.952
	c1.021-0.992,2.382-1.487,4.081-1.487c3.173,0,4.76,1.388,4.76,4.165c0,1.245-0.37,2.237-1.106,2.976
	c-0.396,0.452-1.332,1.104-2.804,1.954c-0.34,0.171-0.511,0.425-0.511,0.765c0,1.246,1.65,1.871,4.951,1.871
	c4.496,0,8.066-2.551,10.716-7.65c2.645-5.1,3.968-10.881,3.968-17.34c-2.946,2.777-6.573,4.164-10.878,4.164
	c-4.818,0-8.828-1.6-12.027-4.802c-3.203-3.2-4.803-7.153-4.803-11.857c0-5.271,1.967-9.618,5.905-13.048
	c3.94-3.428,8.911-5.143,14.919-5.143c6.346,0,11.361,2.125,15.045,6.375S566.733,400.059,566.733,407.48z M554.749,401.739
	c0-5.706-0.881-10.002-2.636-12.884c-1.53-2.542-3.6-3.814-6.205-3.814c-1.812,0-3.43,0.764-4.846,2.288
	c-2.154,2.317-3.229,6.302-3.229,11.952c0,11.021,2.775,16.529,8.33,16.529c2.55,0,4.616-1.299,6.205-3.898
	C553.954,409.312,554.749,405.922,554.749,401.739z"/>
</svg>
