<?xml version="1.0" encoding="utf-8"?>
<!-- Generator: Adobe Illustrator 15.1.0, SVG Export Plug-In  -->
<!DOCTYPE svg PUBLIC "-//W3C//DTD SVG 1.1//EN" "http://www.w3.org/Graphics/SVG/1.1/DTD/svg11.dtd" [
	<!ENTITY ns_flows "http://ns.adobe.com/Flows/1.0/">
]>
<svg version="1.1"
	 xmlns="http://www.w3.org/2000/svg" xmlns:xlink="http://www.w3.org/1999/xlink" xmlns:a="http://ns.adobe.com/AdobeSVGViewerExtensions/3.0/"
	 x="0px" y="0px" width="647px" height="613px" viewBox="-10.334 -15.585 647 613"
	 overflow="visible" enable-background="new -10.334 -15.585 647 613" xml:space="preserve">
<defs>
</defs>
<polygon id="red_half_8_" fill-rule="evenodd" clip-rule="evenodd" fill="#AA0E2F" stroke="#FFFFFF" stroke-width="3" stroke-miterlimit="10" points="
	394.797,194.892 329.178,4.282 240.611,223.508 4.323,231.748 168.002,353.694 "/>
<circle fill="#09009F" stroke="#FFFFFF" stroke-width="3" stroke-miterlimit="10" cx="368.3" cy="244.879" r="17.75"/>
<polygon fill-rule="evenodd" clip-rule="evenodd" fill="#FFFFFF" points="367.582,251.279 358.5,257.638 361.94,246.852 
	352.674,239.947 364.557,239.533 369.011,228.508 372.726,239.3 383.641,240.034 374.522,246.419 377.335,257.783 367.582,251.279 
	"/>
<circle fill="#2B1C9B" stroke="#FFFFFF" stroke-width="3" stroke-miterlimit="10" cx="217.029" cy="350.801" r="17.749"/>
<polygon fill-rule="evenodd" clip-rule="evenodd" fill="#FFFFFF" points="216.311,357.2 207.229,363.559 210.67,352.772 
	201.403,345.868 213.286,345.454 217.741,334.429 221.456,345.221 232.371,345.955 223.25,352.34 226.065,363.704 216.311,357.2 "/>
<circle fill="#09009F" stroke="#FFFFFF" stroke-width="3" stroke-miterlimit="10" cx="292.666" cy="297.84" r="17.75"/>
<polygon fill-rule="evenodd" clip-rule="evenodd" fill="#FFFFFF" points="291.946,304.239 282.866,310.598 286.305,299.812 
	277.039,292.908 288.921,292.493 293.375,281.469 297.09,292.26 308.005,292.994 298.887,299.38 301.7,310.743 291.946,304.239 "/>
<path fill-rule="evenodd" clip-rule="evenodd" fill="#2500DF" stroke="#FFFFFF" stroke-width="3" stroke-miterlimit="10" d="
	M307.828,376.437c0.007,0.035,0.008,0.075,0.016,0.11C311.482,376.502,310.972,376.348,307.828,376.437z"/>
<path fill-rule="evenodd" clip-rule="evenodd" fill="#2B1C9B" stroke="#FFFFFF" stroke-width="3" stroke-miterlimit="10" d="
	M333.222,451.269c-18.344-25.493-55.484-54.652-92.345-31.017c-2.566-11.392,0.821-20.286,7.049-26.082
	c16.03-14.914,50.293-17.462,59.902-17.733c-0.739-3.807,2.842-11.041,5.655-14.692c21.097-27.382,87.78-37.244,129.706-20.443
	c4.656,1.866,9.168,4.096,13.579,6.523l163.318-114.357l-176.27-11.86L175.741,409.315L120.19,583.499l180.566-126.435
	l53.246,35.505C349.361,477.688,342.082,463.582,333.222,451.269z"/>
<path fill-rule="evenodd" clip-rule="evenodd" fill="#2B1C9B" stroke="#FFFFFF" stroke-width="3" stroke-miterlimit="10" d="
	M406.725,527.726l87.979,58.664l-23.518-94.981C448.764,506.626,425.9,519.857,406.725,527.726z"/>
<path fill="#2B1C9B" d="M354.917,420.826c0,0.454-0.709,0.68-2.125,0.68c-0.114,0-0.851,0-2.21,0c-1.36,0-3.345,0-5.95,0h-2.72
	h-7.311c-0.794,0-1.189-0.211-1.189-0.635c0-0.369,0.333-0.555,1.001-0.555h0.668c1.445,0,2.294-0.186,2.545-0.556
	c0.25-0.369,0.376-1.638,0.376-3.802V399.47c0-6.093-0.391-9.739-1.172-10.937c-0.669-1.024-1.868-1.537-3.598-1.537
	s-3.151,0.537-4.268,1.611c-1.115,1.074-1.673,2.43-1.673,4.068v25.693c0.112,0.678,0.354,1.117,0.723,1.314
	c0.367,0.198,1.288,0.326,2.762,0.381c0.453,0,0.681,0.17,0.681,0.51s-0.199,0.537-0.596,0.594c-0.396,0.055-1.813,0.083-4.25,0.083
	s-4.449,0.029-6.034,0.085c-3.117,0.113-6.29,0.17-9.521,0.17c-0.68,0-1.02-0.197-1.02-0.594c0-0.451,0.863-0.679,2.592-0.679
	s2.733-0.339,3.018-1.017l0.255-1.187v-19.499c0-5.482-0.057-8.338-0.17-8.562c-0.17-0.848-0.935-1.273-2.295-1.273
	c-0.737,0-1.389,0-1.955,0h-0.935c-0.907,0-1.36-0.184-1.36-0.555c0-0.369,0.338-0.582,1.015-0.635
	c6.316-0.283,11.363-1.615,15.144-3.995c0.45-0.226,0.76-0.34,0.93-0.34c0.451,0,0.678,0.454,0.678,1.36c0,2.494,0,4.109,0,4.845
	c3.003-3.91,6.855-5.865,11.56-5.865c4.873,0,8.046,1.7,9.521,5.101c0.622,1.416,1.005,3.004,1.147,4.76
	c0.141,1.757,0.212,5.385,0.212,10.88v12.325c0,1.757,0.141,2.791,0.425,3.102c0.283,0.312,1.204,0.469,2.763,0.469
	C354.137,420.146,354.917,420.373,354.917,420.826z"/>
<path fill="#2B1C9B" d="M379.483,420.826c0,0.396-0.256,0.595-0.763,0.595h-11.264h-8.13c-0.34,0-0.764,0-1.271,0
	c-0.452,0-0.707,0-0.763,0c-0.678,0-1.016-0.181-1.016-0.544c0-0.271,0.65-0.431,1.955-0.477c1.926-0.055,3.06-0.27,3.399-0.64
	s0.51-1.495,0.51-3.376v-24.52c0-2.165-0.185-3.46-0.552-3.888c-0.369-0.428-1.488-0.642-3.357-0.642
	c-1.19,0-1.885-0.027-2.083-0.085c-0.199-0.056-0.298-0.255-0.298-0.595c0-0.396,0.426-0.596,1.275-0.596
	c6.233-0.055,11.561-1.02,15.98-2.89c0.112,0.681,0.255,2.55,0.425,5.61v10.795v15.98c0,2.324,0.212,3.684,0.638,4.079
	c0.425,0.397,1.883,0.595,4.377,0.595C379.17,420.23,379.483,420.43,379.483,420.826z M373.533,366.936
	c0,1.588-0.552,2.947-1.652,4.08c-1.103,1.135-2.435,1.7-3.999,1.7c-1.623,0-2.985-0.538-4.087-1.614
	c-1.103-1.076-1.652-2.437-1.652-4.08c0-1.586,0.55-2.891,1.652-3.91c1.102-1.021,2.521-1.53,4.261-1.53
	c1.564,0,2.867,0.51,3.911,1.53C373.01,364.131,373.533,365.406,373.533,366.936z"/>
<path fill="#2B1C9B" d="M425.806,420.826c0,0.454-0.709,0.68-2.125,0.68c-0.114,0-0.851,0-2.21,0c-1.36,0-3.345,0-5.95,0h-2.72
	h-7.311c-0.794,0-1.189-0.211-1.189-0.635c0-0.369,0.333-0.555,1.001-0.555h0.668c1.445,0,2.294-0.186,2.545-0.556
	c0.25-0.369,0.376-1.638,0.376-3.802V399.47c0-6.093-0.391-9.739-1.172-10.937c-0.669-1.024-1.868-1.537-3.598-1.537
	s-3.151,0.537-4.268,1.611c-1.115,1.074-1.673,2.43-1.673,4.068v25.693c0.112,0.678,0.354,1.117,0.723,1.314
	c0.367,0.198,1.288,0.326,2.762,0.381c0.453,0,0.681,0.17,0.681,0.51s-0.199,0.537-0.596,0.594c-0.396,0.055-1.813,0.083-4.25,0.083
	s-4.449,0.029-6.034,0.085c-3.117,0.113-6.29,0.17-9.521,0.17c-0.68,0-1.02-0.197-1.02-0.594c0-0.451,0.863-0.679,2.592-0.679
	s2.733-0.339,3.018-1.017l0.255-1.187v-19.499c0-5.482-0.057-8.338-0.17-8.562c-0.17-0.848-0.935-1.273-2.295-1.273
	c-0.737,0-1.389,0-1.955,0h-0.935c-0.907,0-1.36-0.184-1.36-0.555c0-0.369,0.338-0.582,1.015-0.635
	c6.316-0.283,11.363-1.615,15.144-3.995c0.45-0.226,0.76-0.34,0.93-0.34c0.451,0,0.678,0.454,0.678,1.36c0,2.494,0,4.109,0,4.845
	c3.003-3.91,6.855-5.865,11.56-5.865c4.873,0,8.046,1.7,9.521,5.101c0.622,1.416,1.005,3.004,1.147,4.76
	c0.141,1.757,0.212,5.385,0.212,10.88v12.325c0,1.757,0.141,2.791,0.425,3.102c0.283,0.312,1.204,0.469,2.763,0.469
	C425.026,420.146,425.806,420.373,425.806,420.826z"/>
<path fill="#2B1C9B" d="M462.016,410.966c0,1.247-0.737,2.89-2.21,4.931c-3.174,4.363-7.31,6.545-12.41,6.545
	c-5.724,0-10.427-1.813-14.109-5.44c-3.685-3.626-5.525-8.272-5.525-13.94c0-5.553,1.785-10.186,5.354-13.896
	c3.57-3.711,8.019-5.568,13.346-5.568c3.626,0,6.715,0.795,9.265,2.381c2.833,1.756,4.675,4.279,5.525,7.564
	c0.226,1.02,0.396,2.239,0.51,3.654c-1.305,0.152-6.545,0.266-15.725,0.341c-1.418,0-3.202,0.058-5.355,0.17
	c-0.17,2.032-0.255,3.753-0.255,5.163c0,6.605,1.388,11.291,4.165,14.057c1.643,1.637,3.655,2.455,6.035,2.455
	c1.982,0,3.896-0.68,5.737-2.04c1.841-1.36,3.243-3.116,4.207-5.271c0.453-1.075,0.821-1.614,1.105-1.614
	C461.902,410.456,462.016,410.626,462.016,410.966z M451.306,396.091c0.056-4.331-0.255-7.341-0.935-9.028
	c-0.681-1.688-1.87-2.531-3.57-2.531c-3.457,0-5.44,3.854-5.95,11.56c1.19,0,3.683,0,7.48,0
	C449.464,396.091,450.457,396.091,451.306,396.091z"/>
<path fill="#2B1C9B" d="M492.53,415.896c0,0.623-0.543,1.444-1.627,2.465c-2.797,2.664-6.651,3.994-11.561,3.994
	c-4.51,0-7.479-1.104-8.904-3.314c-0.571-0.85-0.9-1.643-0.986-2.38c-0.085-0.735-0.127-2.636-0.127-5.695v-4.08
	c0.113-1.075,0.17-2.21,0.17-3.399l-0.17-1.785v-7.65v-6.119c0-1.021-0.143-1.615-0.425-1.785c-0.284-0.17-1.135-0.256-2.55-0.256
	c-1.7,0-2.551-0.226-2.551-0.68c0-0.34,0.312-0.566,0.936-0.68c5.325-0.17,9.916-3.061,13.77-8.67c0.51-0.793,0.906-1.19,1.19-1.19
	c0.34,0,0.51,0.397,0.51,1.19c-0.057,4.874,0.141,7.537,0.595,7.99c0.453,0.453,1.841,0.68,4.165,0.68
	c2.38,0,4.051-0.113,5.016-0.34c0.112-0.057,0.226-0.086,0.34-0.086c0.226,0,0.34,0.178,0.34,0.534c0,0.831-0.365,1.247-1.096,1.247
	c-2.305,0.061-4.861,0.09-7.67,0.09c-0.225,0-0.617,0-1.18,0v1.775c0,15.109,0.113,23.962,0.34,26.555
	c0.519,3.27,2.128,4.904,4.832,4.904c1.207,0,2.76-0.85,4.659-2.55c0.919-0.793,1.494-1.19,1.726-1.19
	C492.443,415.471,492.53,415.613,492.53,415.896z"/>
<path fill="#2B1C9B" d="M527.974,385.126c0,0.397-0.114,0.638-0.34,0.723c-0.228,0.085-1.021,0.128-2.38,0.128
	c-1.53,0-2.438,0.084-2.721,0.254l-0.51,0.936l-1.02,2.975c-0.455,1.36-1.475,4.109-3.061,8.245
	c-0.114,0.341-1.359,3.825-3.74,10.455c-5.609,15.696-9.236,25.188-10.88,28.476c-2.04,4.08-4.646,6.119-7.819,6.119
	c-1.814,0-3.272-0.539-4.378-1.615c-1.104-1.076-1.657-2.494-1.657-4.25c0-2.776,1.529-4.164,4.59-4.164
	c1.02,0,1.841,0.34,2.465,1.02c0.283,0.283,0.765,1.076,1.445,2.381c0.396,0.564,0.935,0.85,1.615,0.85
	c1.133,0,2.223-0.949,3.272-2.848c1.048-1.899,2.478-5.484,4.292-10.754c-0.453-0.907-1.329-2.918-2.63-6.035
	c-1.702-4.306-3.972-9.942-6.809-16.912c-0.679-1.7-2.205-5.414-4.578-11.139c-0.795-2.006-1.476-3.199-2.043-3.584
	c-0.567-0.383-1.871-0.604-3.914-0.664c-0.68,0-1.021-0.197-1.021-0.595c0-0.396,0.34-0.595,1.021-0.595h1.529
	c0.851,0,2.125,0,3.825,0s3.003,0,3.91,0h10.37c0.34,0,0.735,0,1.189,0c0.623,0,0.936,0.199,0.936,0.595
	c0,0.51-0.85,0.737-2.55,0.681s-2.55,0.312-2.55,1.104c0,0.567,0.226,1.444,0.68,2.635c0.623,1.587,0.963,2.522,1.02,2.806
	c2.776,7.707,5.043,13.571,6.801,17.594c5.27-13.43,7.904-21.08,7.904-22.949c0-0.623-0.652-0.936-1.955-0.936
	c-2.72,0-4.08-0.254-4.08-0.765c0-0.51,0.341-0.765,1.021-0.765c0.565,0,1.133,0.029,1.7,0.084c1.075,0.115,2.55,0.171,4.42,0.171
	c0.226,0,1.062-0.042,2.507-0.128c1.445-0.085,2.394-0.127,2.848-0.127h0.511C527.719,384.531,527.974,384.73,527.974,385.126z"/>
<path fill="#2B1C9B" d="M566.733,407.48c0,9.465-2.669,17.368-8.007,23.715c-5.339,6.346-12.012,9.521-20.019,9.521
	c-3.352,0-6.063-0.722-8.135-2.167c-2.073-1.445-3.109-3.303-3.109-5.568c0-1.644,0.51-2.961,1.53-3.952
	c1.02-0.992,2.38-1.487,4.08-1.487c3.173,0,4.76,1.388,4.76,4.165c0,1.245-0.369,2.237-1.105,2.976
	c-0.396,0.452-1.332,1.104-2.805,1.954c-0.34,0.171-0.51,0.425-0.51,0.765c0,1.246,1.649,1.871,4.951,1.871
	c4.495,0,8.066-2.551,10.714-7.65c2.646-5.1,3.97-10.881,3.97-17.34c-2.947,2.777-6.574,4.164-10.88,4.164
	c-4.817,0-8.827-1.6-12.027-4.802c-3.202-3.2-4.803-7.153-4.803-11.857c0-5.271,1.968-9.618,5.907-13.048
	c3.938-3.428,8.91-5.143,14.918-5.143c6.346,0,11.36,2.125,15.045,6.375C564.891,394.221,566.733,400.059,566.733,407.48z
	 M554.749,401.739c0-5.706-0.88-10.002-2.635-12.884c-1.53-2.542-3.6-3.814-6.205-3.814c-1.814,0-3.43,0.764-4.846,2.288
	c-2.154,2.317-3.229,6.302-3.229,11.952c0,11.021,2.775,16.529,8.33,16.529c2.55,0,4.617-1.299,6.205-3.898
	C553.954,409.312,554.749,405.922,554.749,401.739z"/>
</svg>
