<?xml version="1.0" encoding="utf-8"?>
<!-- Generator: Adobe Illustrator 15.1.0, SVG Export Plug-In  -->
<!DOCTYPE svg PUBLIC "-//W3C//DTD SVG 1.1//EN" "http://www.w3.org/Graphics/SVG/1.1/DTD/svg11.dtd" [
	<!ENTITY ns_flows "http://ns.adobe.com/Flows/1.0/">
]>
<svg version="1.1"
	 xmlns="http://www.w3.org/2000/svg" xmlns:xlink="http://www.w3.org/1999/xlink" xmlns:a="http://ns.adobe.com/AdobeSVGViewerExtensions/3.0/"
	 x="0px" y="0px" width="647px" height="613px" viewBox="-10.333 -15.585 647 613"
	 overflow="visible" enable-background="new -10.333 -15.585 647 613" xml:space="preserve">
<defs>
</defs>
<polygon id="red_half_9_" fill-rule="evenodd" clip-rule="evenodd" fill="#AA0E2F" stroke="#FFFFFF" stroke-width="3" stroke-miterlimit="10" points="
	394.798,194.892 329.179,4.282 240.612,223.508 4.323,231.748 168.003,353.694 "/>
<circle fill="#09009F" stroke="#FFFFFF" stroke-width="3" stroke-miterlimit="10" cx="368.301" cy="244.879" r="17.75"/>
<polygon fill-rule="evenodd" clip-rule="evenodd" fill="#FFFFFF" points="367.583,251.279 358.501,257.638 361.94,246.852 
	352.675,239.947 364.558,239.533 369.013,228.508 372.728,239.3 383.642,240.034 374.522,246.419 377.337,257.783 367.583,251.279 
	"/>
<circle fill="#2B1C9B" stroke="#FFFFFF" stroke-width="3" stroke-miterlimit="10" cx="217.03" cy="350.801" r="17.749"/>
<polygon fill-rule="evenodd" clip-rule="evenodd" fill="#FFFFFF" points="216.312,357.2 207.229,363.559 210.671,352.772 
	201.403,345.868 213.286,345.454 217.741,334.429 221.456,345.221 232.372,345.955 223.251,352.34 226.065,363.704 216.312,357.2 
	"/>
<circle fill="#09009F" stroke="#FFFFFF" stroke-width="3" stroke-miterlimit="10" cx="292.666" cy="297.84" r="17.75"/>
<polygon fill-rule="evenodd" clip-rule="evenodd" fill="#FFFFFF" points="291.946,304.239 282.866,310.598 286.306,299.812 
	277.04,292.908 288.923,292.493 293.376,281.469 297.091,292.26 308.007,292.994 298.888,299.38 301.7,310.743 291.946,304.239 "/>
<path fill-rule="evenodd" clip-rule="evenodd" fill="#2500DF" stroke="#FFFFFF" stroke-width="3" stroke-miterlimit="10" d="
	M307.829,376.437c0.008,0.035,0.008,0.075,0.016,0.11C311.483,376.502,310.974,376.348,307.829,376.437z"/>
<path fill-rule="evenodd" clip-rule="evenodd" fill="#2B1C9B" stroke="#FFFFFF" stroke-width="3" stroke-miterlimit="10" d="
	M333.224,451.269c-18.344-25.493-55.484-54.652-92.346-31.017c-2.566-11.392,0.821-20.286,7.049-26.082
	c16.03-14.914,50.293-17.462,59.902-17.733c-0.738-3.807,2.842-11.041,5.654-14.692c21.098-27.382,87.781-37.244,129.707-20.443
	c4.656,1.866,9.168,4.096,13.578,6.523l163.318-114.357l-176.27-11.86L175.741,409.315L120.19,583.499l180.566-126.435
	l53.246,35.505C349.362,477.688,342.083,463.582,333.224,451.269z"/>
<path fill-rule="evenodd" clip-rule="evenodd" fill="#2B1C9B" stroke="#FFFFFF" stroke-width="3" stroke-miterlimit="10" d="
	M406.726,527.726l87.979,58.664l-23.518-94.981C448.765,506.626,425.901,519.857,406.726,527.726z"/>
<path fill="#2B1C9B" stroke="#FFFFFF" stroke-miterlimit="10" d="M354.919,420.826c0,0.454-0.709,0.68-2.125,0.68
	c-0.115,0-0.852,0-2.211,0s-3.344,0-5.949,0h-2.721h-7.311c-0.793,0-1.189-0.211-1.189-0.635c0-0.369,0.334-0.555,1.002-0.555h0.668
	c1.445,0,2.293-0.186,2.545-0.556c0.25-0.369,0.375-1.638,0.375-3.802V399.47c0-6.093-0.391-9.739-1.172-10.937
	c-0.668-1.024-1.867-1.537-3.598-1.537c-1.729,0-3.15,0.537-4.268,1.611c-1.115,1.074-1.672,2.43-1.672,4.068v25.693
	c0.111,0.678,0.354,1.117,0.723,1.314c0.367,0.198,1.287,0.326,2.762,0.381c0.453,0,0.68,0.17,0.68,0.51s-0.199,0.537-0.596,0.594
	c-0.396,0.055-1.812,0.083-4.25,0.083c-2.436,0-4.449,0.029-6.033,0.085c-3.117,0.113-6.291,0.17-9.521,0.17
	c-0.68,0-1.02-0.197-1.02-0.594c0-0.451,0.863-0.679,2.592-0.679s2.734-0.339,3.018-1.017l0.256-1.187v-19.499
	c0-5.482-0.057-8.338-0.17-8.562c-0.17-0.848-0.936-1.273-2.295-1.273c-0.738,0-1.389,0-1.955,0h-0.936
	c-0.906,0-1.359-0.184-1.359-0.555c0-0.369,0.338-0.582,1.014-0.635c6.316-0.283,11.363-1.615,15.145-3.995
	c0.449-0.226,0.76-0.34,0.93-0.34c0.451,0,0.678,0.454,0.678,1.36c0,2.494,0,4.109,0,4.845c3.002-3.91,6.855-5.865,11.559-5.865
	c4.873,0,8.047,1.7,9.521,5.101c0.621,1.416,1.004,3.004,1.146,4.76c0.141,1.757,0.213,5.385,0.213,10.88v12.325
	c0,1.757,0.141,2.791,0.424,3.102c0.283,0.312,1.205,0.469,2.764,0.469C354.138,420.146,354.919,420.373,354.919,420.826z"/>
<path fill="#2B1C9B" stroke="#FFFFFF" stroke-miterlimit="10" d="M379.483,420.826c0,0.396-0.256,0.595-0.762,0.595h-11.264h-8.131
	c-0.34,0-0.764,0-1.27,0c-0.453,0-0.707,0-0.764,0c-0.678,0-1.016-0.181-1.016-0.544c0-0.271,0.65-0.431,1.955-0.477
	c1.926-0.055,3.061-0.27,3.4-0.64s0.51-1.495,0.51-3.376v-24.52c0-2.165-0.186-3.46-0.553-3.888
	c-0.369-0.428-1.488-0.642-3.357-0.642c-1.189,0-1.885-0.027-2.082-0.085c-0.199-0.056-0.299-0.255-0.299-0.595
	c0-0.396,0.426-0.596,1.275-0.596c6.234-0.055,11.561-1.02,15.98-2.89c0.113,0.681,0.256,2.55,0.426,5.61v10.795v15.98
	c0,2.324,0.211,3.684,0.637,4.079c0.426,0.397,1.883,0.595,4.377,0.595C379.171,420.23,379.483,420.43,379.483,420.826z
	 M373.534,366.936c0,1.588-0.553,2.947-1.652,4.08c-1.104,1.135-2.436,1.7-4,1.7c-1.623,0-2.984-0.538-4.086-1.614
	c-1.104-1.076-1.652-2.437-1.652-4.08c0-1.586,0.549-2.891,1.652-3.91c1.102-1.021,2.521-1.53,4.26-1.53
	c1.564,0,2.867,0.51,3.912,1.53C373.011,364.131,373.534,365.406,373.534,366.936z"/>
<path fill="#2B1C9B" stroke="#FFFFFF" stroke-miterlimit="10" d="M425.808,420.826c0,0.454-0.709,0.68-2.125,0.68
	c-0.115,0-0.852,0-2.211,0s-3.344,0-5.949,0h-2.721h-7.311c-0.793,0-1.189-0.211-1.189-0.635c0-0.369,0.334-0.555,1.002-0.555h0.668
	c1.445,0,2.293-0.186,2.545-0.556c0.25-0.369,0.375-1.638,0.375-3.802V399.47c0-6.093-0.391-9.739-1.172-10.937
	c-0.668-1.024-1.867-1.537-3.598-1.537c-1.729,0-3.15,0.537-4.268,1.611c-1.115,1.074-1.672,2.43-1.672,4.068v25.693
	c0.111,0.678,0.354,1.117,0.723,1.314c0.367,0.198,1.287,0.326,2.762,0.381c0.453,0,0.68,0.17,0.68,0.51s-0.199,0.537-0.596,0.594
	c-0.396,0.055-1.812,0.083-4.25,0.083c-2.436,0-4.449,0.029-6.033,0.085c-3.117,0.113-6.291,0.17-9.521,0.17
	c-0.68,0-1.02-0.197-1.02-0.594c0-0.451,0.863-0.679,2.592-0.679s2.734-0.339,3.018-1.017l0.256-1.187v-19.499
	c0-5.482-0.057-8.338-0.17-8.562c-0.17-0.848-0.936-1.273-2.295-1.273c-0.738,0-1.389,0-1.955,0h-0.936
	c-0.906,0-1.359-0.184-1.359-0.555c0-0.369,0.338-0.582,1.014-0.635c6.316-0.283,11.363-1.615,15.145-3.995
	c0.449-0.226,0.76-0.34,0.93-0.34c0.451,0,0.678,0.454,0.678,1.36c0,2.494,0,4.109,0,4.845c3.002-3.91,6.855-5.865,11.559-5.865
	c4.873,0,8.047,1.7,9.521,5.101c0.621,1.416,1.004,3.004,1.146,4.76c0.141,1.757,0.213,5.385,0.213,10.88v12.325
	c0,1.757,0.141,2.791,0.424,3.102c0.283,0.312,1.205,0.469,2.764,0.469C425.026,420.146,425.808,420.373,425.808,420.826z"/>
<path fill="#2B1C9B" stroke="#FFFFFF" stroke-miterlimit="10" d="M462.017,410.966c0,1.247-0.736,2.89-2.209,4.931
	c-3.174,4.363-7.311,6.545-12.41,6.545c-5.725,0-10.428-1.813-14.109-5.44c-3.686-3.626-5.525-8.272-5.525-13.94
	c0-5.553,1.785-10.186,5.354-13.896c3.57-3.711,8.02-5.568,13.346-5.568c3.627,0,6.715,0.795,9.266,2.381
	c2.832,1.756,4.674,4.279,5.525,7.564c0.225,1.02,0.395,2.239,0.51,3.654c-1.305,0.152-6.545,0.266-15.725,0.341
	c-1.418,0-3.203,0.058-5.355,0.17c-0.17,2.032-0.256,3.753-0.256,5.163c0,6.605,1.389,11.291,4.166,14.057
	c1.643,1.637,3.654,2.455,6.035,2.455c1.982,0,3.895-0.68,5.736-2.04s3.244-3.116,4.207-5.271c0.453-1.075,0.822-1.614,1.105-1.614
	C461.903,410.456,462.017,410.626,462.017,410.966z M451.308,396.091c0.055-4.331-0.256-7.341-0.936-9.028s-1.869-2.531-3.57-2.531
	c-3.457,0-5.439,3.854-5.949,11.56c1.189,0,3.682,0,7.48,0C449.466,396.091,450.458,396.091,451.308,396.091z"/>
<path fill="#2B1C9B" stroke="#FFFFFF" stroke-miterlimit="10" d="M492.53,415.896c0,0.623-0.543,1.444-1.627,2.465
	c-2.797,2.664-6.65,3.994-11.561,3.994c-4.51,0-7.479-1.104-8.904-3.314c-0.57-0.85-0.9-1.643-0.986-2.38
	c-0.084-0.735-0.127-2.636-0.127-5.695v-4.08c0.113-1.075,0.17-2.21,0.17-3.399l-0.17-1.785v-7.65v-6.119
	c0-1.021-0.143-1.615-0.424-1.785c-0.285-0.17-1.135-0.256-2.551-0.256c-1.699,0-2.551-0.226-2.551-0.68
	c0-0.34,0.312-0.566,0.936-0.68c5.326-0.17,9.916-3.061,13.77-8.67c0.51-0.793,0.906-1.19,1.191-1.19c0.34,0,0.51,0.397,0.51,1.19
	c-0.057,4.874,0.141,7.537,0.594,7.99s1.842,0.68,4.166,0.68c2.379,0,4.051-0.113,5.016-0.34c0.111-0.057,0.225-0.086,0.34-0.086
	c0.225,0,0.34,0.178,0.34,0.534c0,0.831-0.365,1.247-1.096,1.247c-2.305,0.061-4.861,0.09-7.67,0.09c-0.225,0-0.617,0-1.18,0v1.775
	c0,15.109,0.113,23.962,0.34,26.555c0.518,3.27,2.127,4.904,4.832,4.904c1.207,0,2.76-0.85,4.658-2.55
	c0.92-0.793,1.494-1.19,1.727-1.19C492.444,415.471,492.53,415.613,492.53,415.896z"/>
<path fill="#2B1C9B" stroke="#FFFFFF" stroke-miterlimit="10" d="M527.976,385.126c0,0.397-0.115,0.638-0.34,0.723
	c-0.229,0.085-1.021,0.128-2.381,0.128c-1.529,0-2.438,0.084-2.721,0.254l-0.51,0.936l-1.02,2.975
	c-0.455,1.36-1.475,4.109-3.061,8.245c-0.113,0.341-1.359,3.825-3.74,10.455c-5.609,15.696-9.236,25.188-10.879,28.476
	c-2.041,4.08-4.646,6.119-7.82,6.119c-1.814,0-3.271-0.539-4.377-1.615s-1.658-2.494-1.658-4.25c0-2.776,1.529-4.164,4.59-4.164
	c1.02,0,1.842,0.34,2.465,1.02c0.283,0.283,0.766,1.076,1.445,2.381c0.396,0.564,0.936,0.85,1.615,0.85
	c1.133,0,2.223-0.949,3.273-2.848c1.047-1.899,2.477-5.484,4.291-10.754c-0.453-0.907-1.328-2.918-2.629-6.035
	c-1.703-4.306-3.973-9.942-6.809-16.912c-0.68-1.7-2.205-5.414-4.578-11.139c-0.795-2.006-1.477-3.199-2.043-3.584
	c-0.568-0.383-1.871-0.604-3.914-0.664c-0.68,0-1.021-0.197-1.021-0.595c0-0.396,0.34-0.595,1.02-0.595h1.529
	c0.852,0,2.125,0,3.826,0c1.699,0,3.002,0,3.91,0h10.369c0.34,0,0.736,0,1.189,0c0.623,0,0.936,0.199,0.936,0.595
	c0,0.51-0.85,0.737-2.549,0.681c-1.701-0.057-2.551,0.312-2.551,1.104c0,0.567,0.227,1.444,0.68,2.635
	c0.623,1.587,0.963,2.522,1.02,2.806c2.777,7.707,5.043,13.571,6.801,17.594c5.27-13.43,7.904-21.08,7.904-22.949
	c0-0.623-0.652-0.936-1.955-0.936c-2.719,0-4.08-0.254-4.08-0.765c0-0.51,0.342-0.765,1.021-0.765c0.564,0,1.133,0.029,1.699,0.084
	c1.076,0.115,2.551,0.171,4.42,0.171c0.227,0,1.062-0.042,2.508-0.128c1.445-0.085,2.393-0.127,2.848-0.127h0.51
	C527.72,384.531,527.976,384.73,527.976,385.126z"/>
<path fill="#2B1C9B" stroke="#FFFFFF" stroke-miterlimit="10" d="M566.733,407.48c0,9.465-2.668,17.368-8.006,23.715
	c-5.34,6.346-12.012,9.521-20.02,9.521c-3.352,0-6.062-0.722-8.135-2.167s-3.109-3.303-3.109-5.568c0-1.644,0.51-2.961,1.531-3.952
	c1.02-0.992,2.379-1.487,4.08-1.487c3.172,0,4.76,1.388,4.76,4.165c0,1.245-0.369,2.237-1.105,2.976
	c-0.396,0.452-1.332,1.104-2.805,1.954c-0.34,0.171-0.51,0.425-0.51,0.765c0,1.246,1.648,1.871,4.951,1.871
	c4.494,0,8.066-2.551,10.713-7.65s3.971-10.881,3.971-17.34c-2.947,2.777-6.574,4.164-10.881,4.164c-4.816,0-8.826-1.6-12.027-4.802
	c-3.201-3.2-4.803-7.153-4.803-11.857c0-5.271,1.969-9.618,5.908-13.048c3.938-3.428,8.91-5.143,14.918-5.143
	c6.346,0,11.359,2.125,15.045,6.375C564.892,394.221,566.733,400.059,566.733,407.48z M554.749,401.739
	c0-5.706-0.879-10.002-2.635-12.884c-1.529-2.542-3.6-3.814-6.205-3.814c-1.814,0-3.43,0.764-4.846,2.288
	c-2.154,2.317-3.229,6.302-3.229,11.952c0,11.021,2.775,16.529,8.33,16.529c2.549,0,4.617-1.299,6.205-3.898
	C553.954,409.312,554.749,405.922,554.749,401.739z"/>
<path fill="#FFFFFF" d="M290.235,371.271c0,0.09-0.125,0.25-0.375,0.479c-0.43,0.391-0.939,0.585-1.529,0.585
	c-0.551,0-0.965-0.14-1.246-0.419c-0.158-0.159-0.238-0.628-0.238-1.406v-4.46c-0.012-0.1-0.066-0.154-0.166-0.164h-0.57
	c-0.219,0-0.33-0.035-0.33-0.105s0.055-0.11,0.164-0.12c0.775-0.07,1.381-0.455,1.818-1.153c0.061-0.091,0.135-0.137,0.225-0.137
	c0.068,0,0.104,0.035,0.104,0.105v0.06c0,0.05,0,0.135,0,0.255c0,0.42,0.02,0.69,0.061,0.811c0.09,0.02,0.24,0.029,0.449,0.029
	c0.551,0,0.916-0.024,1.096-0.074c0.039-0.01,0.074-0.016,0.105-0.016c0.078,0,0.119,0.043,0.119,0.13
	c0,0.144-0.404,0.216-1.215,0.216c-0.141,0-0.346,0-0.615,0v2.774c0,1.4,0.035,2.277,0.105,2.633
	c0.07,0.354,0.299,0.532,0.689,0.532c0.33,0,0.699-0.185,1.109-0.555c0.041-0.05,0.086-0.075,0.137-0.075
	C290.2,371.196,290.235,371.222,290.235,371.271z"/>
<path fill="#FFFFFF" d="M297.075,372.066c0,0.08-0.084,0.12-0.254,0.12c-0.08,0-0.156,0-0.227,0c-0.35,0-1.129,0-2.34,0h-0.164
	c-0.131,0-0.195-0.04-0.195-0.12c0-0.069,0.189-0.104,0.57-0.104c0.23,0,0.361-0.027,0.396-0.082
	c0.035-0.056,0.053-0.242,0.053-0.562v-3.038c0-0.907-0.039-1.471-0.119-1.69c-0.17-0.459-0.545-0.688-1.125-0.688
	c-0.48,0-0.871,0.214-1.17,0.644c-0.1,0.14-0.15,0.449-0.15,0.928v3.815c0,0.27,0.006,0.424,0.016,0.464
	c0.01,0.1,0.049,0.157,0.119,0.173c0.07,0.015,0.285,0.027,0.645,0.037c0.121,0,0.182,0.04,0.182,0.119
	c0,0.07-0.051,0.105-0.15,0.105h-0.15h-1.186c-0.83-0.011-1.289-0.011-1.379,0h-0.15c-0.111,0-0.166-0.03-0.166-0.091
	c0-0.069,0.055-0.104,0.166-0.104h0.225l0.225-0.015c0.23,0.01,0.35-0.061,0.361-0.211v-6.745c0-1.603-0.025-2.469-0.076-2.599
	c-0.061-0.101-0.305-0.155-0.734-0.166c-0.24,0-0.359-0.037-0.359-0.111c0-0.063,0.023-0.101,0.074-0.111s0.221-0.021,0.51-0.032
	c0.51-0.01,1-0.13,1.471-0.359c0.039-0.021,0.109-0.045,0.209-0.075c0.07,0.12,0.105,0.505,0.105,1.155v3.675
	c0.439-0.64,1.039-0.96,1.801-0.96c0.799,0,1.369,0.22,1.709,0.66c0.17,0.22,0.275,0.529,0.314,0.93
	c0.021,0.14,0.031,0.475,0.031,1.005v3.78c0.01,0.1,0.27,0.149,0.779,0.149C297.03,371.981,297.075,372.017,297.075,372.066z"/>
<path fill="#FFFFFF" d="M303.165,370.521c0,0.1-0.076,0.277-0.232,0.532c-0.154,0.255-0.312,0.463-0.471,0.622
	c-0.432,0.44-1.006,0.66-1.727,0.66c-0.898,0-1.652-0.324-2.258-0.975c-0.604-0.65-0.906-1.455-0.906-2.415
	c0-1,0.287-1.835,0.861-2.505c0.576-0.67,1.293-1.005,2.154-1.005c0.709,0,1.305,0.207,1.783,0.622
	c0.48,0.415,0.736,0.947,0.766,1.598c-0.32,0.05-0.744,0.07-1.275,0.06h-1.049c-0.07,0-0.67,0.016-1.801,0.045
	c-0.051,0.329-0.074,0.644-0.074,0.942c0,1.006,0.191,1.78,0.576,2.323c0.385,0.544,0.928,0.814,1.629,0.814
	c0.398,0,0.719-0.09,0.959-0.27s0.5-0.525,0.781-1.035c0.039-0.08,0.094-0.12,0.164-0.12
	C303.126,370.416,303.165,370.451,303.165,370.521z M301.86,367.461c-0.039-1.199-0.469-1.8-1.289-1.8
	c-0.811,0-1.314,0.601-1.516,1.8H301.86z"/>
</svg>
