<?xml version="1.0" encoding="utf-8"?>
<!-- Generator: Adobe Illustrator 15.1.0, SVG Export Plug-In  -->
<!DOCTYPE svg PUBLIC "-//W3C//DTD SVG 1.1//EN" "http://www.w3.org/Graphics/SVG/1.1/DTD/svg11.dtd" [
	<!ENTITY ns_flows "http://ns.adobe.com/Flows/1.0/">
]>
<svg version="1.1"
	 xmlns="http://www.w3.org/2000/svg" xmlns:xlink="http://www.w3.org/1999/xlink" xmlns:a="http://ns.adobe.com/AdobeSVGViewerExtensions/3.0/"
	 x="0px" y="0px" width="830px" height="275px" viewBox="-3.674 -7.171 830 275"
	 overflow="visible" enable-background="new -3.674 -7.171 830 275" xml:space="preserve">
<defs>
</defs>
<path fill="#1D5692" stroke="#FFFFFF" stroke-width="2" stroke-miterlimit="10" d="M99.545,81.38h39.215v36.359
	c-3.019,1.626-6.035,3.112-9.054,4.457c-3.02,1.349-6.247,2.509-9.682,3.484c-3.438,0.977-7.188,1.741-11.249,2.299
	c-4.065,0.557-8.628,0.836-13.689,0.836c-8.126,0-15.614-1.14-22.463-3.413c-6.849-2.275-12.771-5.479-17.762-9.612
	c-4.992-4.132-8.881-9.125-11.668-14.976c-2.786-5.852-4.179-12.328-4.179-19.435c0-7.521,1.393-14.395,4.179-20.617
	c2.787-6.224,6.664-11.563,11.633-16.021c4.968-4.459,10.877-7.918,17.728-10.38c6.847-2.46,14.336-3.69,22.463-3.69
	c4.783,0,9.391,0.651,13.826,1.949c4.434,1.301,8.533,3.02,12.294,5.154c3.761,2.138,7.151,4.587,10.169,7.35
	s5.503,5.606,7.453,8.532l-9.542,8.706c-1.997-2.831-4.088-5.454-6.269-7.87c-2.184-2.415-4.504-4.515-6.965-6.305
	c-2.463-1.787-5.096-3.192-7.907-4.215c-2.81-1.019-5.816-1.529-9.021-1.529c-4.875,0-9.416,0.882-13.617,2.646
	c-4.203,1.765-7.847,4.307-10.936,7.628c-3.089,3.32-5.504,7.396-7.246,12.223c-1.74,4.83-2.611,10.31-2.611,16.439
	s0.927,11.539,2.786,16.229c1.857,4.692,4.389,8.638,7.592,11.842c3.203,3.206,6.954,5.633,11.249,7.28
	c4.296,1.649,8.905,2.473,13.827,2.473c2.924,0,5.689-0.382,8.289-1.149c2.6-0.767,4.991-1.938,7.173-3.519V89.459h-16.02V81.38z"/>
<path fill="#1D5692" stroke="#FFFFFF" stroke-width="2" stroke-miterlimit="10" d="M207.3,71.072
	c-0.976-0.836-1.87-1.556-2.681-2.161c-0.814-0.604-1.615-1.09-2.404-1.462c-0.791-0.372-1.613-0.639-2.473-0.8
	c-0.86-0.163-1.824-0.246-2.891-0.246c-1.486,0-2.949,0.246-4.389,0.732c-1.44,0.486-2.785,1.161-4.041,2.02
	c-1.253,0.861-2.379,1.858-3.377,2.996c-1,1.139-1.777,2.356-2.334,3.656v51.614h-21.594v-64.85l15.117-7.939l6.477,6.966
	c2.369-2.462,5.002-4.435,7.906-5.921c2.902-1.485,5.955-2.229,9.158-2.229c3.111,0,5.923,0.638,8.43,1.916
	c2.508,1.278,4.689,2.682,6.549,4.214L207.3,71.072z"/>
<path fill="#1D5692" stroke="#FFFFFF" stroke-width="2" stroke-miterlimit="10" d="M253.899,129.024
	c-5.062,0-9.821-0.941-14.279-2.821s-8.337-4.41-11.634-7.592c-3.297-3.181-5.908-6.873-7.837-11.077
	c-1.925-4.2-2.89-8.646-2.89-13.338c0-5.618,0.882-10.832,2.648-15.637c1.764-4.807,4.271-8.974,7.521-12.504
	c3.251-3.527,7.142-6.279,11.669-8.253s9.578-2.96,15.149-2.96c4.967,0,9.519,0.79,13.651,2.367
	c4.133,1.578,7.674,3.739,10.623,6.479c2.949,2.739,5.235,5.966,6.861,9.681c1.626,3.716,2.438,7.686,2.438,11.91h-49.384
	c0.184,3.948,0.776,7.709,1.776,11.283c0.997,3.579,2.331,6.723,4.003,9.44c1.673,2.716,3.633,4.875,5.886,6.478
	c2.253,1.601,4.748,2.402,7.488,2.402c2.368,0,4.702-0.405,7-1.219c2.299-0.812,4.423-1.927,6.374-3.344
	c1.952-1.415,3.644-3.065,5.086-4.945c1.438-1.881,2.482-3.911,3.135-6.095l11.004,1.743c-1.113,3.854-2.889,7.475-5.328,10.864
	c-2.438,3.391-5.293,6.362-8.569,8.916c-3.271,2.555-6.838,4.564-10.691,6.024C261.745,128.293,257.846,129.024,253.899,129.024z
	 M263.021,77.898c-0.185-2.091-0.636-4.008-1.355-5.747c-0.723-1.742-1.639-3.24-2.751-4.493c-1.115-1.255-2.416-2.217-3.902-2.89
	c-1.485-0.673-3.087-1.011-4.807-1.011c-1.347,0-2.669,0.338-3.97,1.011s-2.473,1.624-3.518,2.854
	c-1.044,1.232-1.927,2.718-2.646,4.46c-0.722,1.74-1.196,3.68-1.429,5.816H263.021z"/>
<path fill="#1D5692" stroke="#FFFFFF" stroke-width="2" stroke-miterlimit="10" d="M338.041,129.024
	c-5.062,0-9.822-0.941-14.279-2.821c-4.458-1.88-8.337-4.41-11.633-7.592c-3.299-3.181-5.91-6.873-7.837-11.077
	c-1.927-4.2-2.89-8.646-2.89-13.338c0-5.618,0.881-10.832,2.646-15.637c1.763-4.807,4.271-8.974,7.521-12.504
	c3.25-3.527,7.141-6.279,11.668-8.253s9.578-2.96,15.15-2.96c4.968,0,9.519,0.79,13.652,2.367c4.133,1.578,7.672,3.739,10.623,6.479
	c2.947,2.739,5.234,5.966,6.86,9.681c1.624,3.716,2.438,7.686,2.438,11.91h-49.385c0.184,3.948,0.777,7.709,1.776,11.283
	c0.997,3.579,2.333,6.723,4.005,9.44c1.673,2.716,3.634,4.875,5.886,6.478c2.252,1.601,4.748,2.402,7.489,2.402
	c2.366,0,4.701-0.405,6.999-1.219c2.298-0.812,4.422-1.927,6.374-3.344c1.95-1.415,3.645-3.065,5.085-4.945
	c1.438-1.881,2.481-3.911,3.133-6.095l11.005,1.743c-1.113,3.854-2.889,7.475-5.327,10.864c-2.438,3.391-5.294,6.362-8.567,8.916
	c-3.274,2.555-6.839,4.564-10.693,6.024C345.887,128.293,341.987,129.024,338.041,129.024z M347.164,77.898
	c-0.186-2.091-0.638-4.008-1.356-5.747c-0.722-1.742-1.638-3.24-2.752-4.493c-1.114-1.255-2.416-2.217-3.899-2.89
	c-1.488-0.673-3.089-1.011-4.808-1.011c-1.348,0-2.671,0.338-3.971,1.011s-2.471,1.624-3.519,2.854
	c-1.043,1.232-1.925,2.718-2.645,4.46c-0.723,1.74-1.197,3.68-1.43,5.816H347.164z"/>
<path fill="#1D5692" stroke="#FFFFFF" stroke-width="2" stroke-miterlimit="10" d="M434.093,78.734c0-1.812-0.197-3.427-0.591-4.844
	c-0.396-1.414-0.93-2.599-1.604-3.551c-0.673-0.951-1.438-1.671-2.299-2.159c-0.858-0.488-1.752-0.731-2.681-0.731
	c-0.93,0-1.996,0.186-3.203,0.558c-1.208,0.372-2.473,0.895-3.798,1.566c-1.322,0.673-2.682,1.499-4.073,2.473
	c-1.394,0.977-2.716,2.067-3.971,3.275v52.101h-21.734v-64.85l15.258-7.939h6.477v7.244c3.343-2.414,6.917-4.191,10.728-5.329
	c3.806-1.136,7.592-1.705,11.353-1.705c2.926,0,5.7,0.569,8.324,1.705c2.624,1.138,4.923,2.681,6.896,4.633
	c1.972,1.949,3.538,4.237,4.702,6.86c1.16,2.623,1.74,5.422,1.74,8.395v50.986h-21.523V78.734z"/>
<path fill="#1D5692" stroke="#FFFFFF" stroke-width="2" stroke-miterlimit="10" d="M478.391,27.677l15.255-7.941h6.479v41.306
	c2.785-1.812,5.826-3.296,9.125-4.458c3.296-1.16,6.477-1.74,9.541-1.74c4.458,0,8.567,0.848,12.329,2.541
	c3.763,1.695,7.012,3.994,9.753,6.896c2.739,2.902,4.875,6.281,6.406,10.135c1.533,3.855,2.299,7.94,2.299,12.26
	c0,3.808-0.486,7.487-1.463,11.041c-0.973,3.552-2.356,6.885-4.146,9.994c-1.787,3.113-3.933,5.969-6.441,8.567
	c-2.509,2.603-5.294,4.818-8.357,6.652c-3.066,1.837-6.352,3.263-9.857,4.285c-3.508,1.02-7.164,1.53-10.97,1.53
	c-5.62,0-10.996-0.754-16.126-2.262c-5.132-1.509-9.739-3.912-13.827-7.21V27.677z M500.125,114.535
	c0.74,0.652,1.508,1.28,2.299,1.881c0.787,0.604,1.623,1.14,2.506,1.603c0.883,0.465,1.834,0.836,2.856,1.114
	c1.019,0.278,2.136,0.418,3.343,0.418c2.415,0,4.608-0.729,6.583-2.193c1.973-1.463,3.668-3.483,5.086-6.061
	c1.414-2.577,2.507-5.617,3.271-9.125c0.768-3.505,1.151-7.278,1.151-11.32c0-3.016-0.396-5.861-1.185-8.53
	c-0.79-2.671-1.87-5.016-3.238-7.036c-1.372-2.02-2.984-3.61-4.843-4.771c-1.858-1.159-3.831-1.741-5.92-1.741
	c-1.998,0-4.086,0.59-6.27,1.775c-2.183,1.185-4.064,2.682-5.641,4.493V114.535z"/>
<path fill="#1D5692" stroke="#FFFFFF" stroke-width="2" stroke-miterlimit="10" d="M587.33,56.095v50.292
	c0,1.393,0.278,2.706,0.835,3.935c0.558,1.231,1.312,2.299,2.265,3.203c0.951,0.907,2.055,1.615,3.309,2.124
	c1.254,0.514,2.6,0.768,4.04,0.768c0.788,0,1.683-0.219,2.682-0.661c0.997-0.44,2.021-1.056,3.065-1.847
	c1.044-0.787,2.077-1.718,3.1-2.786c1.021-1.067,1.927-2.228,2.716-3.481V56.095h21.593v71.327h-21.593v-6.617
	c-2.88,2.414-5.911,4.343-9.091,5.781c-3.181,1.439-6.303,2.158-9.366,2.158c-3.53,0-6.828-0.59-9.895-1.775
	c-3.063-1.185-5.722-2.785-7.974-4.806c-2.253-2.02-4.029-4.39-5.328-7.104c-1.301-2.717-1.95-5.608-1.95-8.672V56.095H587.33z"/>
<path fill="#1D5692" stroke="#FFFFFF" stroke-width="2" stroke-miterlimit="10" d="M699.194,71.072
	c-0.975-0.836-1.869-1.556-2.682-2.161c-0.811-0.604-1.612-1.09-2.402-1.462s-1.614-0.639-2.474-0.8
	c-0.859-0.163-1.821-0.246-2.89-0.246c-1.488,0-2.949,0.246-4.388,0.732c-1.44,0.486-2.787,1.161-4.041,2.02
	c-1.254,0.861-2.38,1.858-3.378,2.996c-0.999,1.139-1.775,2.356-2.334,3.656v51.614h-21.593v-64.85l15.114-7.939l6.479,6.966
	c2.368-2.462,5.003-4.435,7.905-5.921c2.902-1.485,5.956-2.229,9.162-2.229c3.109,0,5.919,0.638,8.426,1.916
	c2.508,1.278,4.689,2.682,6.548,4.214L699.194,71.072z"/>
<path fill="#1D5692" stroke="#FFFFFF" stroke-width="2" stroke-miterlimit="10" d="M791.138,61.041v7.453h-13.024
	c1.114,1.766,2.042,3.67,2.785,5.712c0.743,2.044,1.114,4.249,1.114,6.616c0,3.947-0.894,7.464-2.682,10.553
	c-1.787,3.09-4.295,5.701-7.521,7.837c-3.229,2.136-7.095,3.762-11.598,4.876c-4.506,1.114-9.474,1.672-14.907,1.672
	c-1.58,0-3.192-0.105-4.84-0.314c-1.649-0.21-3.146-0.429-4.493-0.661c-0.977,0.697-1.741,1.684-2.299,2.96
	c-0.557,1.277-0.836,2.521-0.836,3.728c0,0.372,0.104,0.708,0.313,1.01c0.209,0.303,0.686,0.59,1.43,0.871
	c0.74,0.278,1.82,0.533,3.238,0.766c1.415,0.233,3.354,0.465,5.815,0.696c2.461,0.232,5.513,0.453,9.159,0.662
	c3.645,0.21,8.046,0.407,13.2,0.593c4.736,0.187,8.707,0.719,11.911,1.601c3.204,0.883,5.792,2.032,7.766,3.447
	c1.975,1.418,3.381,3.078,4.215,4.982c0.836,1.902,1.253,3.971,1.253,6.198c0,3.993-1.057,7.673-3.169,11.041
	c-2.113,3.366-5.166,6.278-9.159,8.74c-3.994,2.462-8.845,4.377-14.557,5.747c-5.712,1.369-12.19,2.055-19.435,2.055
	c-6.502,0-12.18-0.418-17.032-1.254c-4.851-0.836-8.904-1.962-12.154-3.378c-3.251-1.416-5.688-3.088-7.312-5.015
	c-1.626-1.927-2.438-3.982-2.438-6.166c0-1.577,0.463-3.182,1.395-4.805c0.927-1.627,2.146-3.241,3.654-4.842
	c1.51-1.602,3.205-3.18,5.086-4.736s3.797-3.054,5.747-4.491c-2.787-0.93-5.005-2.091-6.651-3.484
	c-1.649-1.392-2.474-2.971-2.474-4.735c0-1.255,0.383-2.577,1.147-3.972c0.768-1.392,1.789-2.774,3.066-4.143
	c1.276-1.372,2.787-2.659,4.528-3.867c1.741-1.206,3.586-2.252,5.538-3.133c-2.324-1.068-4.423-2.241-6.307-3.52
	c-1.879-1.276-3.471-2.728-4.771-4.354c-1.299-1.623-2.296-3.457-2.995-5.5c-0.695-2.045-1.044-4.344-1.044-6.896
	c0-4.041,0.894-7.72,2.683-11.041c1.787-3.318,4.259-6.152,7.417-8.498c3.158-2.344,6.861-4.155,11.11-5.434
	c4.249-1.276,8.856-1.916,13.826-1.916c2.368,0,4.689,0.175,6.965,0.524c2.275,0.348,4.4,0.825,6.374,1.426
	c1.973,0.605,3.75,1.28,5.327,2.021c1.58,0.743,2.834,1.533,3.763,2.369H791.138z M763.347,128.954
	c-3.205,0-6.421-0.047-9.647-0.139c-3.227-0.094-6.282-0.221-9.159-0.383c-2.88-0.164-5.505-0.35-7.872-0.558
	c-2.367-0.209-4.272-0.407-5.712-0.593c-0.789,0.604-1.473,1.336-2.055,2.194c-0.58,0.859-1.068,1.753-1.462,2.682
	c-0.396,0.93-0.696,1.881-0.905,2.855c-0.211,0.977-0.314,1.904-0.314,2.787c0,1.346,0.498,2.691,1.498,4.04
	c0.998,1.345,2.507,2.565,4.526,3.656c2.021,1.09,4.552,1.985,7.594,2.682c3.039,0.697,6.581,1.046,10.621,1.046
	c4.366,0,8.277-0.396,11.738-1.185c3.458-0.791,6.384-1.776,8.775-2.961c2.392-1.183,4.227-2.483,5.503-3.9
	c1.276-1.418,1.916-2.751,1.916-4.005c0-2.647-1.347-4.68-4.041-6.095C771.657,129.663,767.99,128.954,763.347,128.954z
	 M747.813,100.117c1.577,0,3.109-0.44,4.596-1.323c1.486-0.882,2.811-2.077,3.971-3.588c1.159-1.508,2.09-3.228,2.786-5.153
	c0.697-1.928,1.046-3.937,1.046-6.027c0-3.063-0.395-5.93-1.185-8.601c-0.79-2.669-1.87-5.016-3.238-7.034
	c-1.371-2.021-2.96-3.611-4.772-4.772c-1.811-1.16-3.737-1.741-5.78-1.741c-1.952,0-3.622,0.465-5.016,1.393
	c-1.393,0.93-2.542,2.172-3.447,3.727c-0.905,1.557-1.566,3.378-1.986,5.469c-0.418,2.089-0.628,4.294-0.628,6.617
	c0,2.831,0.325,5.514,0.977,8.045c0.649,2.531,1.579,4.761,2.786,6.688c1.208,1.927,2.647,3.46,4.319,4.596
	C743.912,99.549,745.77,100.117,747.813,100.117z"/>
<path fill="#1D5692" stroke="#FFFFFF" stroke-width="2" stroke-miterlimit="10" d="M236.127,152.672h27.893
	c7.182,0,13.775,0.841,19.785,2.522s11.189,4.131,15.535,7.342c4.346,3.213,7.719,7.163,10.119,11.85s3.6,10.034,3.6,16.044
	c0,5.404-1.02,10.479-3.061,15.222c-2.043,4.743-5.018,8.892-8.93,12.444s-8.721,6.35-14.428,8.39
	c-5.709,2.042-12.246,3.062-19.615,3.062h-30.898V152.672z M255.006,221.667h10.033c3.705,0,7.191-0.68,10.461-2.04
	s6.133-3.363,8.588-6.01c2.457-2.646,4.395-5.896,5.812-9.751c1.416-3.856,2.125-8.277,2.125-13.267
	c0-4.309-0.67-8.307-2.012-11.991s-3.203-6.869-5.584-9.552c-2.381-2.684-5.227-4.791-8.533-6.322
	c-3.309-1.53-6.926-2.296-10.857-2.296h-10.033V221.667z"/>
<path fill="#1D5692" stroke="#FFFFFF" stroke-width="2" stroke-miterlimit="10" d="M355.125,230.852
	c-4.121,0-7.994-0.767-11.623-2.296c-3.627-1.531-6.783-3.59-9.467-6.18c-2.684-2.589-4.811-5.594-6.379-9.016
	c-1.568-3.419-2.352-7.038-2.352-10.855c0-4.573,0.717-8.816,2.154-12.728c1.436-3.911,3.477-7.304,6.123-10.178
	c2.645-2.87,5.811-5.109,9.494-6.717c3.688-1.606,7.797-2.409,12.332-2.409c4.043,0,7.746,0.644,11.111,1.928
	c3.363,1.284,6.246,3.043,8.645,5.272c2.4,2.23,4.262,4.856,5.586,7.881c1.322,3.023,1.984,6.255,1.984,9.693h-40.195
	c0.15,3.213,0.631,6.273,1.445,9.184c0.812,2.912,1.898,5.471,3.26,7.684c1.359,2.21,2.957,3.968,4.791,5.271
	c1.832,1.303,3.863,1.956,6.094,1.956c1.928,0,3.826-0.33,5.697-0.992c1.871-0.661,3.6-1.568,5.188-2.722
	c1.588-1.152,2.967-2.495,4.139-4.024c1.172-1.531,2.021-3.184,2.553-4.961l8.957,1.418c-0.906,3.137-2.354,6.084-4.338,8.844
	c-1.984,2.759-4.309,5.178-6.973,7.256c-2.664,2.08-5.566,3.715-8.703,4.904C361.512,230.256,358.336,230.852,355.125,230.852z
	 M362.551,189.239c-0.152-1.701-0.52-3.262-1.105-4.678c-0.586-1.418-1.33-2.637-2.238-3.656c-0.908-1.021-1.967-1.805-3.176-2.353
	c-1.209-0.547-2.514-0.822-3.912-0.822c-1.096,0-2.174,0.275-3.23,0.822c-1.059,0.548-2.014,1.322-2.863,2.323
	c-0.852,1.002-1.57,2.212-2.154,3.63c-0.586,1.416-0.973,2.994-1.162,4.733H362.551z"/>
<path fill="#1D5692" stroke="#FFFFFF" stroke-width="2" stroke-miterlimit="10" d="M433.303,189.919c0-1.475-0.16-2.787-0.482-3.941
	c-0.32-1.15-0.756-2.115-1.303-2.89c-0.549-0.774-1.172-1.36-1.871-1.758s-1.428-0.595-2.182-0.595c-0.758,0-1.627,0.15-2.609,0.453
	c-0.984,0.303-2.014,0.729-3.09,1.275c-1.076,0.548-2.182,1.22-3.316,2.012c-1.135,0.795-2.211,1.683-3.232,2.666v42.405h-17.688
	v-52.78l12.416-6.463h5.271v5.896c2.723-1.964,5.633-3.411,8.732-4.337c3.1-0.925,6.178-1.389,9.24-1.389
	c2.381,0,4.639,0.464,6.773,1.389c2.135,0.926,4.006,2.182,5.613,3.771c1.607,1.587,2.883,3.449,3.826,5.584
	c0.945,2.136,1.418,4.412,1.418,6.831v41.499h-17.518V189.919z"/>
<path fill="#1D5692" stroke="#FFFFFF" stroke-width="2" stroke-miterlimit="10" d="M461.592,178.751v-4.139l9.354-3.119v-11.792
	l12.303-6.463h5.271v18.255h14.23v7.258h-14.23v37.36c0,1.171,0.303,2.192,0.908,3.062c0.604,0.87,1.396,1.304,2.381,1.304
	c0.604,0,1.275-0.207,2.012-0.623s1.438-0.898,2.098-1.446c0.662-0.547,1.248-1.105,1.758-1.673
	c0.512-0.565,0.879-1.001,1.107-1.304l6.008,4.762c-0.984,1.512-2.061,2.92-3.23,4.224c-1.174,1.305-2.516,2.43-4.025,3.374
	c-1.514,0.945-3.252,1.692-5.217,2.239s-4.234,0.822-6.803,0.822c-2.457,0-4.592-0.35-6.406-1.049s-3.328-1.673-4.535-2.92
	c-1.211-1.247-2.119-2.739-2.721-4.479c-0.605-1.739-0.908-3.666-0.908-5.782v-37.871H461.592z"/>
<path fill="#1D5692" stroke="#FFFFFF" stroke-width="2" stroke-miterlimit="10" d="M509.213,186.234
	c0.604-2.419,1.662-4.621,3.176-6.604c1.51-1.985,3.391-3.666,5.641-5.046c2.248-1.379,4.816-2.447,7.709-3.203
	c2.891-0.756,6.02-1.134,9.383-1.134c4.158,0,7.748,0.378,10.771,1.134s5.508,1.824,7.457,3.203c1.945,1.38,3.381,3.043,4.307,4.988
	c0.928,1.947,1.391,4.13,1.391,6.548v33.223c0,2.382,0.736,4.403,2.209,6.066c1.475,1.663,3.553,3.042,6.236,4.138h-20.863
	c-0.604,0-1.189-0.169-1.756-0.511c-0.568-0.338-1.078-0.783-1.531-1.331c-0.455-0.547-0.85-1.143-1.191-1.785
	c-0.34-0.643-0.586-1.267-0.736-1.871c-1.059,0.982-2.059,1.88-3.004,2.692c-0.947,0.812-1.986,1.502-3.119,2.068
	c-1.133,0.568-2.4,1.012-3.799,1.333s-3.08,0.481-5.045,0.481c-2.684,0-5.094-0.378-7.229-1.134
	c-2.135-0.755-3.949-1.804-5.441-3.146c-1.494-1.341-2.637-2.928-3.43-4.762c-0.795-1.833-1.191-3.826-1.191-5.981
	c0-3.325,0.924-6.179,2.777-8.561c1.852-2.382,4.299-4.459,7.344-6.236c3.041-1.775,6.488-3.325,10.344-4.648
	s7.787-2.589,11.793-3.799v-5.668c0-1.852-0.188-3.431-0.566-4.734c-0.379-1.305-0.908-2.361-1.588-3.175s-1.502-1.399-2.467-1.758
	c-0.963-0.358-2.031-0.538-3.203-0.538c-1.398,0-2.645,0.264-3.74,0.793c-1.098,0.53-2.041,1.247-2.834,2.154
	c-0.795,0.907-1.438,1.947-1.93,3.119c-0.49,1.171-0.85,2.399-1.076,3.685H509.213z M541.414,199.613
	c-1.701,0.719-3.422,1.587-5.158,2.608c-1.74,1.021-3.299,2.164-4.678,3.43c-1.379,1.267-2.514,2.664-3.402,4.195
	c-0.887,1.531-1.332,3.165-1.332,4.904c0,1.927,0.502,3.439,1.502,4.534c1.002,1.098,2.354,1.645,4.055,1.645
	c1.436,0,2.854-0.425,4.252-1.275c1.396-0.85,2.984-1.956,4.762-3.316V199.613z"/>
<path fill="#1D5692" stroke="#FFFFFF" stroke-width="2" stroke-miterlimit="10" d="M594.025,229.547h-17.52v-81.184l12.246-6.463
	h5.273V229.547z"/>
<path fill="#1D9347" d="M120.993,26.995C95.627,8.7,60.774,0.797,27.526,19.471c-31.2,17.523-40.869,58.272-2.438,106.751
	c12.249,15.451,25.485,26.527,24.236,66.105c-0.681,21.577,2.861,42.676,14.667,61.334c21.797,34.45,33.735-41.637,39.001-56.002
	c9.198-25.089,20.824-23.452,30.241-2.171c4.112,9.294,17.404,46.513,26.199,56.402c12.396,13.938,16.718-13.062,18.64-25.152
	c5.519-34.718,5.873-57.474,29.094-75.408c13.809-10.665,34.005-8.384,38.466-8c31.027,2.667,40.374,3.247,38.466,2.333
	c-4.441-2.128-30.396-10.528-41.346-12.674c-3.65-0.715-7.496-1.291-11.428-1.635c-5.384-0.47-10.929-0.504-16.352,0.138
	c-5.383,0.638-10.646,1.941-15.512,4.146c-3.543,1.604-6.876,3.687-9.893,6.337c-3.75,3.294-7.011,7.466-9.576,12.688
	c-13.233,26.939-9.328,57.383-13.666,66c-2.479,4.923-5.779,6.998-10.334-12.002c-1.868-7.794-8.333-31.667-21.08-43.606
	c-22.965-21.511-42.218,1.576-48.1,28.242c-5.153,23.364-6.87,50.001-13.757,30.771c-13.397-37.406-0.394-72.738-11.061-92.327
	c-4.208-7.729-19.94-17.141-26.333-39.411c-5.03-17.521-6.333-39,12-53C73.705,19.44,120.993,26.995,120.993,26.995z"/>
<path fill="#1D9347" d="M126.032,23.296c51.82-34.666,120.961-38.301,90.656,42.699C226.66,9.328,156.773,7.976,126.032,23.296
	L126.032,23.296z"/>
</svg>
